<?xml version="1.0" encoding="UTF-8"?>
<svg width="2664px" height="1332px" viewBox="0 0 2664 1332" version="1.1" xmlns="http://www.w3.org/2000/svg" xmlns:xlink="http://www.w3.org/1999/xlink">
    <!-- Generator: Sketch 51.3 (57544) - http://www.bohemiancoding.com/sketch -->
    <title>Group</title>
    <desc>Created with Sketch.</desc>
    <defs></defs>
    <g id="Page-1" stroke="none" stroke-width="1" fill="none" fill-rule="evenodd">
        <g id="Group">
            <g id="lobster_header" fill-rule="nonzero">
                <rect id="rect866" fill="#FFFFFF" x="0" y="0" width="2663.21214" height="1331.85574"></rect>
                <path d="M1157.77779,0 C1114.09597,160.285272 1122.91271,333.493075 1203.46419,476.529611 C1214.31451,463.192811 1230.83337,454.626714 1249.25422,454.626714 C1281.71447,454.626714 1308.30607,481.206166 1308.30607,513.666373 C1308.30607,530.806821 1300.88766,546.305156 1289.1098,557.121646 C1307.98126,586.154693 1322.8402,618.304642 1331.60799,646.110891 L1331.65675,646.11395 C1340.42217,618.315207 1355.27029,586.173576 1374.13057,557.146022 C1362.341,546.328517 1354.91601,530.819149 1354.91601,513.666373 C1354.91601,481.206166 1381.49546,454.626714 1413.95567,454.626714 C1432.38657,454.626714 1448.91682,463.20169 1459.77007,476.550944 C1540.33335,333.510897 1549.16554,160.290344 1505.48694,0 L1157.77779,0 Z" id="path879" fill="#E73845"></path>
                <path d="M1249.25422,479.946409 C1230.47679,479.946409 1215.52205,494.88893 1215.52205,513.666373 C1215.52205,532.443831 1230.47679,547.39854 1249.25422,547.39854 C1268.03169,547.39854 1282.98333,532.443831 1282.98333,513.666373 C1282.98333,494.88893 1268.03169,479.946409 1249.25422,479.946409 Z" id="circle1139" fill="#E73845"></path>
                <path d="M1413.95567,479.946409 C1395.17824,479.946409 1380.2235,494.88893 1380.2235,513.666373 C1380.2235,532.443831 1395.17824,547.39854 1413.95567,547.39854 C1432.73315,547.39854 1447.68477,532.443831 1447.68477,513.666373 C1447.68477,494.88893 1432.73315,479.946409 1413.95567,479.946409 Z" id="circle887" fill="#E73845"></path>
                <g id="g1125" transform="translate(908.195855, 1.534366)" fill="#E73845">
                    <g id="g1105" transform="translate(711.464476, 136.384491) rotate(-180.000000) translate(-711.464476, -136.384491) translate(578.754299, 3.674314)">
                        <path d="M221.242553,49.8722966 C151.127895,65.7569608 90.7812127,63.8449303 5.4017858,0.715419757 C22.1134217,74.4803906 131.583689,126.2741 229.905408,103.998911 L221.242553,49.8722966 Z" id="path1097"></path>
                        <path d="M234.440931,120.296408 C165.638095,141.142768 105.308764,143.540346 15.6433128,86.6626319 C37.5746311,159.047362 150.460859,202.899745 246.943004,173.667392 L234.440931,120.296408 Z" id="path1099"></path>
                        <path d="M249.425876,194.724189 C181.608985,218.583354 121.444016,223.638205 29.3581609,170.769188 C54.4594421,242.116476 169.169243,280.949192 264.268788,247.491674 L249.425876,194.724189 Z" id="path1101"></path>
                    </g>
                    <g id="g916" transform="translate(135.355979, 136.384491) scale(-1, 1) rotate(-180.000000) translate(-135.355979, -136.384491) translate(2.645802, 3.674314)">
                        <path d="M221.242553,49.8722966 C151.127895,65.7569608 90.7812127,63.8449303 5.4017858,0.715419757 C22.1134217,74.4803906 131.583689,126.2741 229.905408,103.998911 L221.242553,49.8722966 Z" id="path908"></path>
                        <path d="M234.440931,120.296408 C165.638095,141.142768 105.308764,143.540346 15.6433128,86.6626319 C37.5746311,159.047362 150.460859,202.899745 246.943004,173.667392 L234.440931,120.296408 Z" id="path910"></path>
                        <path d="M249.425876,194.724189 C181.608985,218.583354 121.444016,223.638205 29.3581609,170.769188 C54.4594421,242.116476 169.169243,280.949192 264.268788,247.491674 L249.425876,194.724189 Z" id="path912"></path>
                    </g>
                </g>
                <g id="g1060" transform="translate(144.182895, 266.954720)" fill="#E73845">
                    <g id="g1038">
                        <path d="M1054.77536,98.2592697 C901.535268,64.944456 432.531309,183.127039 366.131925,357.861996 L211.104025,298.501262 C308.668359,88.2793524 860.097665,-37.2507086 1064.27451,17.5156908 L1054.77536,98.2592697 Z" id="path891"></path>
                        <path d="M323.349585,515.834036 C321.741373,690.577466 421.264215,914.542074 780.729783,870.372276 C505.704811,1270.8303 -54.7584014,923.127809 10.547392,545.5664 C44.0766477,424.375835 116.967388,371.816099 187.38736,352.782396 L323.349585,515.834036 Z" id="path894"></path>
                        <circle id="circle896" transform="translate(254.277169, 428.186550) scale(-1, 1) rotate(-134.009738) translate(-254.277169, -428.186550) " cx="254.277169" cy="428.18655" r="156.523425"></circle>
                        <path d="M676.482165,727.268167 C564.767209,673.93896 404.692371,597.694793 264.737752,623.82371 L218.598847,449.760851 C436.190571,446.71538 601.748994,550.601678 676.482165,727.268167 Z" id="path898"></path>
                    </g>
                    <g id="g1048" transform="translate(1841.056553, 524.942478) scale(-1, 1) translate(-1841.056553, -524.942478) translate(1307.266730, 0.000000)">
                        <path d="M1054.77536,98.2592697 C901.535268,64.944456 432.531309,183.127039 366.131925,357.861996 L211.104025,298.501262 C308.668359,88.2793524 860.097665,-37.2507086 1064.27451,17.5156908 L1054.77536,98.2592697 Z" id="path1040"></path>
                        <path d="M323.349585,515.834036 C321.741373,690.577466 421.264215,914.542074 780.729783,870.372276 C505.704811,1270.8303 -54.7584014,923.127809 10.547392,545.5664 C44.0766477,424.375835 116.967388,371.816099 187.38736,352.782396 L323.349585,515.834036 Z" id="path1042"></path>
                        <circle id="circle1044" transform="translate(254.277169, 428.186550) scale(-1, 1) rotate(-134.009738) translate(-254.277169, -428.186550) " cx="254.277169" cy="428.18655" r="156.523425"></circle>
                        <path d="M676.482165,727.268167 C564.767209,673.93896 404.692371,597.694793 264.737752,623.82371 L218.598847,449.760851 C436.190571,446.71538 601.748994,550.601678 676.482165,727.268167 Z" id="path1046"></path>
                    </g>
                </g>
                <g id="g1133" transform="translate(179.125985, 154.888348)" fill="#E73845">
                    <path d="M1157.02672,413.000821 C1156.32624,413.950206 1153.79555,418.111691 1147.72521,422.966005 C1140.83106,428.479116 1130.47595,435.691855 1115.88574,442.758017 C1088.39468,456.072181 1046.58236,468.528316 985.41388,468.799079 C942.862868,469.280445 894.453735,455.938497 845.659801,435.667749 C796.619026,415.294472 745.95435,387.394151 698.605187,357.572711 C698.605069,357.572635 698.017723,357.202479 698.017723,357.20242 C646.748715,324.876303 602.383054,292.148558 570.648866,267.050504 C551.439215,251.857878 535.429118,238.345074 522.772991,227.09154 C508.235505,214.165186 497.599876,203.763049 490.377788,195.918232 C405.222976,107.029404 322.777633,67.3411458 277.995027,49.1477955 C229.600226,29.4869539 188.30884,20.582508 162.506502,16.2045113 C127.888433,10.3307235 96.2369377,8.46579748 68.4515554,8.95502617 C39.3398381,9.46764135 3.86882606,15.1488991 4.02790133,15.11338 L3.06059159,10.7815075 C11.120641,8.98164488 35.4263624,5.15996337 68.3606637,4.4204079 C96.156073,3.79624539 128.56319,5.3218462 163.411939,10.5246868 C189.464068,14.4142156 231.620723,22.4845279 281.069066,41.3390638 C326.860093,58.7990694 411.676111,97.4355849 499.871756,186.679056 C507.135721,193.719124 517.915386,203.390393 532.646156,215.591354 C545.4462,226.193128 561.67636,239.069631 581.035826,253.5487 C612.985948,277.4444 657.738533,308.877791 708.863153,339.584336 C708.862976,339.584266 709.450027,339.936461 709.449437,339.936402 C756.834107,368.363641 806.91763,394.401862 854.802824,412.829454 C902.931261,431.350652 947.663674,441.717174 984.596916,439.934428 C1041.6072,436.862082 1077.4048,422.468354 1098.0515,409.770526 C1109.06732,402.995736 1115.93528,396.608095 1119.57561,392.418829 C1122.72161,388.798466 1124.34274,387.332786 1123.60045,388.33887 L1157.02672,413.000821 Z" id="path1107"></path>
                    <path d="M2301.8996,413.000821 C2301.19913,413.950206 2298.66843,418.111691 2292.59809,422.966005 C2285.70395,428.479116 2275.34884,435.691855 2260.75862,442.758017 C2233.26756,456.072181 2191.45524,468.528316 2130.28676,468.799079 C2087.73575,469.280445 2039.32662,455.938497 1990.53268,435.667749 C1941.49191,415.294472 1890.82723,387.394151 1843.47807,357.572711 C1843.47795,357.572635 1842.89061,357.202479 1842.89061,357.20242 C1791.6216,324.876303 1747.25594,292.148558 1715.52175,267.050504 C1696.3121,251.857878 1680.302,238.345074 1667.64588,227.09154 C1653.10839,214.165186 1642.47276,203.763049 1635.25067,195.918232 C1550.09586,107.029404 1467.65052,67.3411458 1422.86791,49.1477955 C1374.47311,29.4869539 1333.18172,20.582508 1307.37939,16.2045113 C1272.76132,10.3307235 1241.10982,8.46579748 1213.32444,8.95502617 C1184.21272,9.46764135 1148.74171,15.1488991 1148.90079,15.11338 L1147.93348,10.7815075 C1155.99353,8.98164488 1180.29925,5.15996337 1213.23355,4.4204079 C1241.02896,3.79624539 1273.43607,5.3218462 1308.28482,10.5246868 C1334.33695,14.4142156 1376.49361,22.4845279 1425.94195,41.3390638 C1471.73298,58.7990694 1556.549,97.4355849 1644.74464,186.679056 C1652.00861,193.719124 1662.78827,203.390393 1677.51904,215.591354 C1690.31908,226.193128 1706.54924,239.069631 1725.90871,253.5487 C1757.85883,277.4444 1802.61142,308.877791 1853.73604,339.584336 C1853.73586,339.584266 1854.32291,339.936461 1854.32232,339.936402 C1901.70699,368.363641 1951.79051,394.401862 1999.67571,412.829454 C2047.80415,431.350652 2092.53656,441.717174 2129.4698,439.934428 C2186.48009,436.862082 2222.27768,422.468354 2242.92438,409.770526 C2253.94021,402.995736 2260.80817,396.608095 2264.4485,392.418829 C2267.59449,388.798466 2269.21562,387.332786 2268.47333,388.33887 L2301.8996,413.000821 Z" id="path1127" transform="translate(1724.916539, 236.550263) scale(-1, 1) translate(-1724.916539, -236.550263) "></path>
                </g>
            </g>
            <path d="M1629,1109.93396 L1645.89845,1109.93396 L1645.89845,1093.19369 L1629,1093.19369 L1629,1109.93396 Z M1659.69249,1109.93396 L1676.24533,1109.93396 L1676.24533,1038.72002 L1659.69249,1038.72002 L1659.69249,1109.93396 Z M1702.2852,1109.93396 L1718.83805,1109.93396 L1718.83805,1066.71085 C1718.83805,1057.47557 1716.72583,1050.32877 1712.50138,1045.27048 C1708.27694,1040.21218 1702.33248,1037.68567 1694.66802,1037.69095 C1690.5113,1037.5953 1686.42918,1038.7949 1682.99752,1041.12054 C1679.44396,1043.71135 1676.61883,1047.15997 1674.79102,1051.13818 L1676.24533,1065.88759 C1676.02863,1062.49009 1677.23051,1059.1536 1679.56949,1056.65956 C1682.13685,1054.35914 1685.53381,1053.18436 1688.98859,1053.40215 C1692.61391,1053.17275 1696.17353,1054.43915 1698.82321,1056.901 C1701.26847,1059.60051 1702.51595,1063.16031 1702.2852,1066.78012 L1702.2852,1109.93396 Z M1763.01493,1110.96304 C1767.73632,1110.94419 1772.40756,1110.00268 1776.76103,1108.19245 C1781.30924,1106.33996 1785.47605,1103.67707 1789.0548,1100.33586 L1778.2513,1090.3202 C1776.1291,1092.14882 1773.70339,1093.59973 1771.0816,1094.60867 C1768.51458,1095.62101 1765.77787,1096.1447 1763.01493,1096.15228 C1758.38865,1096.63377 1753.79091,1095.01546 1750.50843,1091.75025 C1747.22595,1088.48504 1745.61135,1083.92369 1746.11648,1079.34274 L1746.11648,1070.28688 C1745.80786,1065.55952 1747.26154,1060.88437 1750.20176,1057.14837 C1753.1589,1053.96127 1757.40626,1052.26079 1761.76837,1052.51754 C1765.40166,1052.37018 1768.90103,1053.88851 1771.2554,1056.63384 C1773.83802,1059.97418 1775.3139,1064.02441 1775.48051,1068.22874 L1775.54843,1068.98273 L1742.09714,1068.98273 L1742.09714,1080.98926 L1790.92264,1080.98926 L1790.92264,1076.32478 C1791.09998,1069.22185 1789.9374,1062.14852 1787.49461,1055.46821 C1785.57179,1050.1798 1782.09857,1045.58071 1777.52015,1042.26043 C1772.88345,1039.13728 1767.3711,1037.54115 1761.76638,1037.69886 C1755.94185,1037.53363 1750.17513,1038.88182 1745.03973,1041.60935 C1740.39911,1044.22051 1736.69755,1048.20222 1734.45198,1052.99843 C1731.88553,1058.6651 1730.64274,1064.83237 1730.81619,1071.04088 L1730.81619,1079.06172 C1730.64008,1085.05785 1731.94799,1091.00556 1734.62578,1096.3858 C1737.05685,1101.06543 1740.90791,1104.87213 1745.63704,1107.27024 C1751.04448,1109.8741 1757.00696,1111.14506 1763.01693,1110.97491 L1763.01493,1110.96304 Z M1822.36426,1110.27633 L1831.23,1110.27633 L1831.23,1094.56513 L1825.48265,1094.56513 C1824.29241,1094.63559 1823.1464,1094.10738 1822.43418,1093.16005 C1821.66926,1091.96428 1821.30566,1090.55951 1821.39538,1089.14666 L1821.39538,1018 L1804.84253,1018 L1804.84253,1091.41062 C1804.84253,1097.63124 1806.2509,1102.33068 1809.06764,1105.50894 C1811.88438,1108.6872 1816.31659,1110.27633 1822.36426,1110.27633 Z M1797.43311,1053.0578 L1831.23,1053.0578 L1831.23,1038.72002 L1797.43311,1038.72002 L1797.43311,1053.0578 Z" id="_.net" fill="#E73845" fill-rule="nonzero" opacity="0.2"></path>
            <g id="lobster_header" transform="translate(880.000000, 950.000000)" fill="#E73845" font-family="Helvetica-Bold, Helvetica" font-size="164" font-weight="bold">
                <text id="Lobsterer">
                    <tspan x="0" y="159">Lobsterer</tspan>
                </text>
            </g>
        </g>
    </g>
</svg>